<svg xmlns="http://www.w3.org/2000/svg" viewBox="0 0 2655.24 861.54"><defs><style>.cls-1{fill:#006837;}</style></defs><title>Asset 1</title><g id="Layer_2" data-name="Layer 2"><g id="Layer_1-2" data-name="Layer 1"><path class="cls-1" d="M2655.19,754.25q-8.05-117.68-16.12-235.35c-2.6-37.89-4.48-75.9-7.9-113.73-2.56-28.28-7.37-58.61-26.48-80.89C2556.37,267.94,2484,321,2441.2,355.11c-58.55,46.58-117.16,94.81-179,136.94-13.67,9.31-29.82,18.16-46.07,10-13.45-6.72-22.3-21.56-26.46-35.5-11.24-37.67,9.32-77.16,25.83-109.95L2188,353.06c13.36,70.85,2.59,156.55-40.3,216.45-8.65,12.09-21.94,22.7-35.11,10.3-13.94-13.13-12.87-33.94-8.33-50.93,9.83-36.82,30.15-72.57,49.45-105.17A663.3,663.3,0,0,1,2230,319.61c10.68-11.95-3.53-34-18.18-23.56-78.91,56.18-167.07,98.28-260.76,123.09A765.68,765.68,0,0,1,1808.39,443c-42.74,3-98.69,9-134.5-19.84-15.48-12.47-27.42-32.37-26.54-52.72.93-21.58,16.31-38.2,32.38-50.93,36.39-28.82,80.3-54.17,124.12-69.52,41-14.35,84.44-19,126.36-5.77,38.9,12.26,72.26,39.76,87.19,78.3,16.71,43.1,13.1,92.63,1.44,136.52-10.33,38.91-29,77.93-60.23,104.34-74.15,62.66-167.24-1-217.16-62.48-56.62-69.71-90.22-156.17-161.15-214.21-22.75-18.6-71.51-57.29-31.3-85,33.42-23,85.25-13.89,120.85-1.82,85.41,29,154.43,101.66,201.85,176,48.28,75.74,79.06,163.23,88.12,252.65a597.42,597.42,0,0,1,2.92,67.28l25.6-10.61c-110.2-141.51-95.19-341.59-24-496.46,21.66-47.15,48.24-91.85,78-134.34L2016.4,39.29c-77,116-184.27,211.09-309.72,271.78a719.55,719.55,0,0,1-108.35,41.81c-8.48,2.52-14.87,13.93-9,22C1671,486.85,1726.54,615.64,1753.7,751.4l27.42-11.56L1664.2,520.52c-4.93-9.24-16.46-8.85-23.56-3-19.35,15.83-34.62,35.51-51.44,53.84-14.86,16.19-30.88,31.77-52.8,37.18-16,4-36.73,3-47.71-11.09-16.38-20.95-2.84-51.89,7.63-72.21,40.56-78.78,115.33-163,213.06-150.41,40.69,5.25,78.52,27.47,98.25,64.09,22.9,42.5,23,98,10.59,143.78-10.72,39.66-34.82,82.48-75.86,96.82-20.23,7.07-44.77,4-48.64-20.81-3.5-22.42,5.44-47.7,12-68.83,31.41-101.06,100.57-190.13,193.41-241.65l-22.57-13c-8.21,98.87-48.25,195.86-115,269.58-33.1,36.53-75.38,71.53-125.59,79.42-47.48,7.46-89.16-19.08-115.33-57.12-34.78-50.55-43.71-113.34-52.73-172.65-2-13.37-21.36-13.73-27.42-3.58a1010.54,1010.54,0,0,0-126.85,340.27c-3.38,18.9,22.56,26.42,28.93,8q29.6-85.71,59.18-171.42c8.85-25.7,17.32-53.14,9.25-80.23-6.85-23-23-41.11-38.09-59.11-61.65-73.55-99.2-167.31-109.47-262.49a506,506,0,0,1,8.66-164.1c4.19-18.81-23.27-26.52-28.92-8-42.43,139.13-150.07,258.88-289.52,304.83-18.25,6-10.89,33.67,8,28.93,110.13-27.69,228.29,9,305.52,91.72,37.84,40.5,65.55,90.33,81.27,143.4,7.77,26.21,13.15,53.51,14.35,80.86.59,13.59.48,28.43-6,40.78-4.27,8.13-14.26,17.2-24.38,14.77-13.08-3.15-12.3-23.35-12.17-33.58.22-18.59,1.21-37.18,1.85-55.76q2-57.72,4-115.44c.54-15.63-20.17-19.39-28-7.57l-53.88,81.81c-16.26,24.7-31.49,50.68-49.66,74-13.15,16.89-31.7,38.32-54.4,41.11-25.26,3.1-40.66-22.07-48.53-42.3-19.07-49-21.74-103.83-21.42-155.81.34-55.36,5.17-110.63,4.46-166-.75-59.13-8.72-117.83-34-171.78-3.28-7-14.27-9.64-20.52-5.38C970.82,236,904.45,303.53,951,365.7c21.6,28.87,59.43,46.27,90,63.87q53.16,30.6,108.65,56.86,53.81,25.44,109.45,46.74,28.47,10.89,57.35,20.62c17.15,5.77,35.1,10.1,51.9,16.82,9.91,4,28.16,12.4,25.57,26-2.85,14.91-26.64,23.48-38.27,29.47a621,621,0,0,1-109.78,43.63c-75.44,22.11-154.6,30.73-233.08,26.62-58.09-3-117.58-16.68-168.31-45.87-51.93-29.87-91.19-78-99.53-138.56-10.38-75.4,24.24-149.38,71.81-205.79,24.31-28.83,52-54.68,80.5-79.26,28.36-24.44,58.17-47.39,90.91-65.7,57.15-32,125.48-47.13,187.54-19.56,27,12,50.65,31.31,65.64,57,19.17,32.87,22.48,71.8,19.73,109-2.8,37.89-11.71,75.72-22.69,112-10.93,36.14-25.68,71.26-47.42,102.31-20.31,29-48.17,53.75-81.09,67.44A134.21,134.21,0,0,1,1062.74,600c-11.32.34-41.33,1.52-39.52-15.63,3.28-31,24.27-64.13,44.59-86.72,20.64-22.94,46.53-41.72,75.72-52.16,30.41-10.87,69.69-16.42,98.79.86,24.39,14.48,35.82,44.42,37.57,71.55,4.6,71.14-50.25,123.64-104.08,161.22-61.17,42.71-132.92,81.09-209.64,79.08-62.11-1.64-124.92-33.14-154.76-89.13C777.67,605.77,794,527.13,827,467.13c14.86-27,36.64-64.38,68.87-72.57,13-3.31,29.24-.89,38.1,10.11,11.4,14.16,8.09,36.21,4.63,52.53A196.24,196.24,0,0,1,891,549.81l25.07,6.62c-12-67.7,15.77-145.27,72.88-185.36,6.43-4.51,16.36-12.51,24.67-11.55,7.2.83,9.74,8.05,11.36,14.29,4.35,16.77,1.29,35.62-.88,52.5A477.48,477.48,0,0,1,993,544.16,449.54,449.54,0,0,1,931.8,650.64c-18.21,23.43-49.63,58-83.19,52.62-38.51-6.16-27.42-61.79-20.45-87a333.18,333.18,0,0,1,44.22-96C916,455,982.81,405.43,1059.72,387.63l-18.45-18.45c-19.35,65.3-74.66,119.89-143,131.06-18.55,3-37.8,1.37-55,10.19-16.33,8.37-27,24.12-36.87,39-25.9,39-51.52,78.19-77.27,117.28l27.41,11.56q35.21-88.2,70.4-176.4c15.23-38.15,42.64-92.17,17.59-132.27-12.48-20-35-26.21-57.35-23.31C758.23,350,729.69,359.2,701,364.84c-58.21,11.45-117.56,18.58-177,16-54.25-2.38-115.48-11.55-162.5-40.58-44.83-27.67-58.8-79-56.14-129C309.76,129.6,369.69,10.52,468.9,32c44.26,9.57,79,44.14,103.87,80.27,30.07,43.76,48.77,93.78,61.81,145,27,106.06,24.44,223.28-33.5,319-24.23,40-57.55,75-98.82,97.48-29.85,16.29-93.17,35.67-101.79-14.64-2.32-13.55-.66-28.09.32-41.7,1.16-16,2.83-32,5.16-47.82A696.3,696.3,0,0,1,424.11,484,656.24,656.24,0,0,1,453,401.05c9-20.93,20.33-46.38,41.54-57.52,22.05-11.59,48-1.15,65.62,13.85C578.57,373,591.43,394.75,599,417.5c16.27,49.1,10.34,101.21-7.54,149-9.94,26.55-23.7,51.62-38.77,75.56-3.71,5.9-37.26,58-43.51,38.92-3.44-10.51-.45-26.58.31-37.42a392.32,392.32,0,0,1,5.77-45A425.88,425.88,0,0,1,539,517a406.16,406.16,0,0,1,37.64-70.82c10.79-16.35-14.77-30.49-25.9-15.14C487,518.9,408.82,627.79,289.32,632.53c-52.7,2.09-102.39-18.8-131.58-63.92-32.5-50.24-43.13-114.26-39.55-173.19,3.49-57.52,22-119.73,59.37-164.61,30.89-37.11,84.66-73.75,133.59-47.67,42.64,22.73,57.53,76.13,65.06,120.3,9.23,54.14,11.89,113.62-.88,167.35-6.63,27.89-18.75,62.54-41.55,81.57-26,21.72-51.89-39.79-60-56.33C242,431.73,224.42,360.82,221,289.29c-.8-16.68-24.59-20.64-29.47-4a2307.45,2307.45,0,0,0-84.78,458c-1.46,17.65,24.28,19.19,29.46,4a565.37,565.37,0,0,0,29.46-208.61c-1.63-33.9-5.32-69.26-14.28-102.09-6.24-22.84-23.75-53.11-52.13-45.69-13.91,3.63-22.71,15.43-30.81,26.42A317.93,317.93,0,0,0,44.7,454.77a367.18,367.18,0,0,0-32.5,83.36A393.51,393.51,0,0,0,8,714c6.51,31.7,17.29,63.08,32.6,91.65,15,28,38.3,54.86,72.26,55.86,19.32.56,19.3-29.44,0-30-23.62-.69-38.51-25.69-48.1-44.35-11.32-22-19.5-45.61-25.27-69.65A356.08,356.08,0,0,1,36,569.13c9.08-48,27.54-93.86,56.07-133.59,4.4-6.13,11.71-20.37,19.85-12.73,7.63,7.16,10.17,19.78,12.34,29.5A509.14,509.14,0,0,1,135.77,541a541.49,541.49,0,0,1-28.5,198.31l29.47,4a2267.12,2267.12,0,0,1,83.71-450l-29.46-4A563.1,563.1,0,0,0,243.9,503c13.16,27.85,28.94,64.15,57.87,78.93,32.17,16.43,57.61-9.05,74-34.36,35.75-55.23,40.4-125.31,36.4-189.19-3.61-57.54-11.87-121.77-48.37-168.73-37.47-48.2-99.17-56.36-151.42-27.35-58.36,32.38-93.93,94.52-111.5,157-32.78,116.58-9,298.2,127.36,336.32,65.55,18.32,136.65-.35,191.65-38.14,64.6-44.37,111.31-108.71,156.74-171.36L550.73,431A437.08,437.08,0,0,0,484,603.81c-2.39,15.4-4.13,30.9-5,46.46-.77,14.34-2.53,30.85,3.14,44.44,11.57,27.73,41.88,23.65,61.59,7.66,22.06-17.89,37.12-47.49,50.66-72,14.92-27,27.55-55.69,35.39-85.59,14.14-54,12.08-113.44-13.79-163.66-23.69-46-79.7-91.25-133.34-65.17-24.12,11.73-39.66,35.78-50.77,59.28-13.57,28.72-24.43,59-33.47,89.41A698.37,698.37,0,0,0,377,561.51c-4.63,31.35-10.24,65.37-6.69,97.07,6.38,56.87,62.42,72.2,110.73,57C584.32,683,652.39,574.62,672.68,473.33c12.85-64.17,10.44-130.29-2.38-194.26-11.75-58.65-31.26-117.75-63-168.78-27.17-43.67-64.57-84.63-114-102.5C444.82-9.75,393,3.42,354.57,36.33,314.65,70.48,289.65,122.47,280,173.48c-10,53.08-6.57,113.57,27.4,157.92,36.85,48.11,103.64,65.47,160.76,74,65.93,9.82,132.42,6.15,198.06-4.05,33.34-5.17,66.38-12.09,99.19-19.9,23-5.46,54.24-13.91,58.12,18.32,3,25.06-8.07,50.3-17.12,73L767,571.49l-39.42,98.78c-6.59,16.5,18.55,25,27.41,11.56,25.76-39.09,51.38-78.28,77.27-117.28,11.82-17.79,21.83-29.84,44.21-32.19,18.54-2,36.32-3.4,54.19-9.2,67.4-21.88,119.52-78.55,139.5-146,3.37-11.38-7.62-21-18.45-18.45C969,377.85,897.57,431.16,849.65,500.54A356.62,356.62,0,0,0,796.82,617.6C787.42,656,786.47,708.39,828.43,728c39.12,18.31,84.15-10.86,110.18-38.9,32.4-34.88,57.8-78,76.76-121.43a510.41,510.41,0,0,0,38.75-141.39c4.06-32.61,7.59-98.88-42.43-96.93-23.4.91-45.78,19.92-61.84,35.44a211.64,211.64,0,0,0-41.33,56.36A228.52,228.52,0,0,0,887.16,564.4c2,11.11,17.86,14.44,25.07,6.62,27.38-29.67,46.87-66.27,55.27-105.85,8-37.53,4.7-82.51-36.69-97.77-78.42-28.91-134.41,81.22-153.76,139.51-24.38,73.44-18.32,157.83,36.61,216.14,51.52,54.69,129.92,73.18,202.31,61.21,42.71-7.06,83.48-24.18,121.08-45.23,36.06-20.17,71.34-43.89,102-71.71,54.33-49.34,90.46-124,60.26-196.46-14-33.49-41.72-57.38-78-63.19-37.24-6-75.72,2.34-109.26,18.86-32.12,15.82-59.5,40.11-80.7,68.81a220.83,220.83,0,0,0-26.46,47.54c-7,17-15.85,38.92-9.86,57.22,12,36.56,69.42,32.49,98.56,25.88,37.5-8.52,71.87-30.47,98.27-58.05,58.6-61.2,85-152,96.32-234.08,5.71-41.45,6.25-85.38-9-125a166.82,166.82,0,0,0-65.47-80.74c-62.79-40.76-141.2-37.76-208-9-38.64,16.62-73.34,40.59-106,66.81s-64.5,54.69-92.73,85.88c-56.38,62.29-99.34,142.63-93.15,229,10.75,150.13,163,217.45,295.58,225.35,88,5.25,178.1-5.78,262-32.91,41.28-13.35,83.11-30.18,120.34-52.66,14.9-9,28.75-21.57,31.69-39.53,2.89-17.65-5.55-33.42-19.18-44.18-14.31-11.3-31.53-16.5-48.68-21.85q-32.41-10.12-64.35-21.71-64.42-23.4-126.45-52.73-62.93-29.77-123-65.2c-30.07-17.75-82-39.74-75.76-82.65,5.26-36.17,40.93-65.1,69.15-84.35L1014.65,223c50.18,106.88,23.55,231,25.61,344.42,1,54.56,5.25,118.79,34,166.8,12.82,21.42,33.18,38.41,59,39.63,25.08,1.19,47.51-13.44,64.83-30.2,24.57-23.76,42-54.37,60.64-82.68l65.22-99-28-7.57q-2.06,60.23-4.12,120.46c-.64,18.73-2.11,37.64-1.69,56.38.34,14.61,2.66,29.71,11.73,41.59,18.41,24.09,53.15,19.37,72.26-1.32,22.57-24.42,20.11-62.06,16.33-92.59-16.06-129.65-96.85-250.48-218.58-302.49-68.81-29.4-145.66-36-218.29-17.71l8,28.93c149.63-49.3,264.89-176.31,310.47-325.78l-28.92-8a541.76,541.76,0,0,0,14.76,286.55c15.13,45.66,36.19,89.57,63.36,129.3,13.38,19.58,29,37.16,43.57,55.78,7.1,9,13.83,18.93,17.2,30,4.37,14.37,1.69,29.1-2.35,43.2-9.3,32.38-21.75,64.1-32.74,95.93l-33.34,96.58,28.93,8c21-117.57,62.52-230.54,123.82-333.1L1439,462.44c9,59.4,18.59,121.57,51.42,173.26,27.15,42.75,69.2,76.52,121.29,79.59,56.46,3.32,109.57-29.54,149.18-66.82,39.33-37,71.58-82.32,95.43-130.68a506.68,506.68,0,0,0,50.3-182.55c1-11.79-13.34-18.07-22.57-12.95-99.6,55.27-173.54,151.27-207.2,259.58-8.13,26.16-16.83,55.35-12.28,82.94s25.92,45.89,53.48,48c52.76,4.07,96.87-43.23,116.57-87.3,23-51.59,28.57-113.64,12.65-168.12-15.11-51.68-53.7-90.45-105.17-106.12-114.37-34.81-212.67,52.88-264.82,146.15-16.39,29.31-34.13,65.95-22,100,9.29,26.14,32.85,40.93,59.87,42.84,68.9,4.87,100.87-64,146.76-101.58l-23.56-3L1755.22,755c8.36,15.7,30.61,4.43,27.41-11.56-27.6-138-84.42-269.89-167.36-383.65l-9,22c137.85-41,262.61-121.6,359-228.12a842.64,842.64,0,0,0,77-99.25c10.77-16.22-15-30.79-25.91-15.14-107.28,153.27-174,347.53-118.08,533.18a408.7,408.7,0,0,0,68.81,134c8.4,10.79,25.47,1.25,25.61-10.6a616.59,616.59,0,0,0-71.21-293.9c-46.46-88-117.84-172.6-208.76-216.57-44.71-21.62-97.78-34.47-147.16-22.81-42,9.93-76,48.07-55.71,92.09,9.51,20.61,27.72,35.75,44.94,49.79a351,351,0,0,1,52.83,52.84c31.68,39.57,56,84.46,84.33,126.34C1742.54,558.24,1833.35,647,1932.75,612c91.56-32.26,130.59-149.4,125.37-238.34-2.91-49.66-22.15-96.91-61.95-128.12-35.11-27.54-80.47-40.87-124.91-39.35-53.61,1.82-104.57,23.48-150.23,50.27-39.43,23.14-94,52.59-102.45,102.31-8.43,49.9,29.76,93.11,74.92,107.65,25.47,8.2,52.92,8.8,79.44,8.19a773.64,773.64,0,0,0,79.61-6,824.31,824.31,0,0,0,306-102.74c23.5-13.5,46.26-28.22,68.33-43.93l-18.17-23.56a702.89,702.89,0,0,0-83.16,114,687.75,687.75,0,0,0-32.82,63.64c-9.72,21.54-19.32,43.47-21.28,67.29-3.11,37.78,27.91,86.52,71,68.94,19.76-8.07,32.09-27.29,41.77-45.37a328.09,328.09,0,0,0,26.13-64.61c14.59-51.16,16.44-105,6.6-157.23-2.36-12.5-21.79-14.75-27.42-3.58-27.25,54.14-56.77,131.4,0,178.57,24.23,20.14,54.38,18.25,80.5,2.6,31.71-19,60.82-44.29,90.16-66.69q47.51-36.27,94.36-73.4c25.52-20.23,53-45.51,86.11-51.76,32.65-6.16,50.24,19.14,56.63,47.74,7.55,33.8,7,70.1,9.34,104.53q9.3,135.57,18.58,271.16c1.32,19.16,31.33,19.3,30,0Z"/></g></g></svg>